<svg width="1019" height="1056" viewBox="0 0 1019 1056" fill="none" xmlns="http://www.w3.org/2000/svg">
<path opacity="0.5" d="M318.343 -18.3058C198.405 82.2166 179.819 272.298 98.5892 412.527C70.3124 461.322 33.7749 504.992 14.7119 559.123C-29.0536 683.026 31.1802 823.572 111.801 921.981C150.245 968.927 195.149 1011.94 249.478 1031.72C291.258 1046.94 336.056 1047.57 380.033 1047.97L1150.5 1055.9C1236.52 1056.77 1332.1 1053.62 1393.95 987.208C1436.57 941.478 1453.89 874.692 1468.58 810.944C1486.64 732.613 1503 647.546 1474.91 572.94C1442.82 487.582 1361.67 439.21 1311.26 365.555C1229.45 246.223 1231.33 65.7314 1127.14 -29.5336C1078.51 -73.9959 1014.33 -91.4321 951.792 -100.15C833.892 -116.609 722.215 -85.5408 606.433 -89.8734C507.464 -93.572 400.447 -87.1259 318.343 -18.3058Z" fill="#E7ECFF"/>
<path opacity="0.24" d="M559.786 877.613C513.337 882.283 465.463 887.419 424.589 910.264C419.119 913.328 413.564 916.942 410.546 922.458C404.488 933.553 411.363 948.177 422.032 954.855C432.701 961.533 445.865 962.294 458.42 962.844C681.987 972.586 905.889 968.761 1129.65 964.957C1194.62 963.858 1260.63 962.59 1322.9 943.718C1334.1 940.337 1346.4 935.265 1350.61 924.212C1356.13 909.757 1343.55 893.737 1328.88 889.236C1314.2 884.735 1298.55 888.095 1283.37 890.06C1230.68 896.886 1177.52 886.446 1125.05 878.099C1022.35 861.784 915.783 848.512 811.755 846.039C776.289 845.215 746.001 857.515 711.29 862.376C661.173 869.434 610.176 872.541 559.786 877.613Z" fill="#505F98"/>
<path d="M377.077 444.326L492.907 208.408L561.893 242.19L446.063 478.108L377.077 444.326Z" fill="white"/>
<path d="M403.922 437.055L418.036 408.22L464.5 430.903L450.386 459.738L403.922 437.055Z" fill="#505F98"/>
<path d="M403.922 437.055L418.036 408.22L464.5 430.903L450.386 459.738L403.922 437.055Z" fill="url(#paint0_linear_0_29)"/>
<path d="M418.038 408.445L432.151 379.61L478.615 402.293L464.502 431.128L418.038 408.445Z" fill="#505F98"/>
<path d="M418.038 408.445L432.151 379.61L478.615 402.293L464.502 431.128L418.038 408.445Z" fill="url(#paint1_linear_0_29)"/>
<path d="M432.134 379.826L446.248 350.991L492.712 373.674L478.598 402.509L432.134 379.826Z" fill="#505F98"/>
<path d="M432.134 379.826L446.248 350.991L492.712 373.674L478.598 402.509L432.134 379.826Z" fill="url(#paint2_linear_0_29)"/>
<path d="M446.271 351.237L460.384 322.402L506.848 345.085L492.735 373.92L446.271 351.237Z" fill="#505F98"/>
<path d="M446.271 351.237L460.384 322.402L506.848 345.085L492.735 373.92L446.271 351.237Z" fill="url(#paint3_linear_0_29)"/>
<path d="M460.377 322.599L474.49 293.764L520.954 316.447L506.841 345.282L460.377 322.599Z" fill="#505F98"/>
<path d="M474.492 294.01L488.606 265.175L535.07 287.858L520.956 316.693L474.492 294.01Z" fill="#505F98"/>
<path d="M488.589 265.391L502.702 236.556L549.166 259.239L535.053 288.074L488.589 265.391Z" fill="#505F98"/>
<path d="M472.904 297.598L487.018 268.763L533.482 291.446L519.368 320.281L472.904 297.598Z" fill="url(#paint4_linear_0_29)"/>
<path d="M487.029 268.97L501.142 240.135L547.607 262.817L533.493 291.652L487.029 268.97Z" fill="url(#paint5_linear_0_29)"/>
<rect x="787.545" y="762" width="98.0679" height="82" fill="#505F98"/>
<rect x="787.545" y="762" width="98.0679" height="82" fill="url(#paint6_linear_0_29)"/>
<rect x="579.401" y="420" width="518.359" height="355" rx="9.37" fill="#505F98"/>
<path opacity="0.65" d="M1080.75 449.438V743.562C1080.77 748.443 1078.84 753.129 1075.4 756.588C1071.96 760.047 1067.29 761.994 1062.41 762H610.748C605.873 761.989 601.203 760.04 597.764 756.582C594.325 753.125 592.399 748.441 592.41 743.562V449.438C592.399 444.559 594.325 439.875 597.764 436.418C601.203 432.96 605.873 431.011 610.748 431H1062.41C1067.29 431.006 1071.96 432.953 1075.4 436.412C1078.84 439.871 1080.77 444.557 1080.75 449.438V449.438Z" fill="url(#paint7_linear_0_29)"/>
<rect x="742.514" y="834" width="206.143" height="21" fill="#505F98"/>
<rect x="787.545" y="822" width="98.0679" height="12" fill="url(#paint8_linear_0_29)"/>
<path fill-rule="evenodd" clip-rule="evenodd" d="M942.653 248.241V268.715L929.944 268.819C928.707 278.346 925.084 287.41 919.405 295.181L930.26 306.351L915.38 320.6L904.694 309.578C898.105 314.062 890.67 317.17 882.838 318.714V332H862.267V319.029C853.483 317.76 845.11 314.497 837.797 309.494L828.861 318.316L814.297 303.647L823.17 294.993C817.584 287.219 814.021 278.191 812.801 268.715H798.553V248.241H813.307C815.136 240.093 818.732 232.441 823.845 225.819L815.604 217.332L830.484 203.082L838.914 211.82C845.885 207.214 853.809 204.228 862.099 203.082V189H882.669V203.396C891.038 205.055 898.947 208.493 905.853 213.476L916.391 203.166L930.871 217.709L920.333 228.187C924.464 234.267 927.397 241.073 928.974 248.241H942.653ZM836.512 261.15C836.488 280.211 852.011 295.682 871.182 295.705C880.394 295.733 889.238 292.113 895.759 285.644C902.281 279.176 905.943 270.392 905.938 261.233C905.961 242.172 890.438 226.701 871.267 226.678C852.095 226.655 836.535 242.088 836.512 261.15Z" fill="#505F98"/>
<path fill-rule="evenodd" clip-rule="evenodd" d="M1018.71 282.354L1017.79 294.396L1010.27 293.938C1009.15 299.475 1006.64 304.641 1002.99 308.958L1008.86 316.021L999.507 323.729L993.747 316.792C989.693 319.13 985.206 320.625 980.558 321.188L979.953 329L967.912 328.104L968.496 320.479C963.411 319.344 958.656 317.056 954.598 313.792L948.964 318.583L941.096 309.396L946.668 304.688C943.74 299.876 942.055 294.414 941.764 288.792L933.646 288.167L934.544 276.146L943.162 276.792C944.586 272.085 947.014 267.743 950.278 264.062L945.834 258.708L955.182 251L959.711 256.5C963.982 254.095 968.738 252.672 973.63 252.333L974.256 244L986.297 244.896L985.65 253.375C990.457 254.714 994.915 257.081 998.714 260.312L1005.33 254.708L1013.18 263.896L1006.5 269.583C1008.66 273.339 1010.08 277.477 1010.67 281.771L1018.71 282.354ZM956.008 285.243C955.153 296.436 963.546 306.203 974.757 307.062C980.151 307.487 985.492 305.747 989.597 302.228C993.703 298.708 996.232 293.7 996.627 288.312C997.469 277.119 989.066 267.361 977.854 266.514C966.642 265.666 956.863 274.05 956.008 285.243Z" fill="#505F98"/>
<path d="M1080.75 449.513V456H592.41V449.513C592.399 444.614 594.325 439.912 597.764 436.44C601.203 432.968 605.874 431.011 610.749 431H1062.41C1067.29 431.006 1071.96 432.961 1075.4 436.434C1078.84 439.907 1080.77 444.613 1080.75 449.513V449.513Z" fill="url(#paint9_linear_0_29)"/>
<rect x="602.417" y="488" width="47.0326" height="227" fill="url(#paint10_linear_0_29)"/>
<rect x="720.499" y="504" width="221.153" height="209" fill="url(#paint11_linear_0_29)"/>
<rect x="771.534" y="602" width="7.00485" height="9" fill="url(#paint12_linear_0_29)"/>
<rect x="771.534" y="560" width="7.00485" height="9" fill="url(#paint13_linear_0_29)"/>
<rect x="676.469" y="602" width="7.00485" height="9" fill="url(#paint14_linear_0_29)"/>
<rect x="676.469" y="560" width="7.00485" height="9" fill="url(#paint15_linear_0_29)"/>
<rect x="771.534" y="515" width="7.00485" height="9" fill="url(#paint16_linear_0_29)"/>
<rect x="677.469" y="515" width="7.00485" height="9" fill="url(#paint17_linear_0_29)"/>
<rect x="725.502" y="515" width="7.00485" height="9" fill="url(#paint18_linear_0_29)"/>
<rect x="725.502" y="602" width="7.00485" height="9" fill="url(#paint19_linear_0_29)"/>
<path fill-rule="evenodd" clip-rule="evenodd" d="M689.478 600H767.532V527H689.478V600ZM759.67 592.282H697.34V534.656H759.67V592.282Z" fill="#505F98"/>
<path fill-rule="evenodd" clip-rule="evenodd" d="M689.478 600H767.532V527H689.478V600ZM759.67 592.282H697.34V534.656H759.67V592.282Z" fill="url(#paint20_linear_0_29)"/>
<rect x="973.674" y="468" width="100.069" height="100" fill="url(#paint21_linear_0_29)"/>
<rect x="973.674" y="578" width="100.069" height="100" fill="url(#paint22_linear_0_29)"/>
<rect opacity="0.65" x="602.417" y="487" width="47.0326" height="13" fill="url(#paint23_linear_0_29)"/>
<path d="M399.381 418.827L604.51 254.293L652.622 314.118L447.494 478.652L399.381 418.827Z" fill="white"/>
<path d="M428.105 423.455L453.172 403.235L485.755 443.522L460.687 463.742L428.105 423.455Z" fill="#505F98"/>
<path d="M428.105 423.455L453.172 403.235L485.755 443.522L460.687 463.742L428.105 423.455Z" fill="url(#paint24_linear_0_29)"/>
<path d="M451.723 403.689L476.755 383.56L509.19 423.79L484.158 443.919L451.723 403.689Z" fill="#505F98"/>
<path d="M451.723 403.689L476.755 383.56L509.19 423.79L484.158 443.919L451.723 403.689Z" fill="url(#paint25_linear_0_29)"/>
<path d="M476.667 383.761L501.699 363.633L534.134 403.863L509.101 423.991L476.667 383.761Z" fill="#505F98"/>
<path d="M476.667 383.761L501.699 363.633L534.134 403.863L509.101 423.991L476.667 383.761Z" fill="url(#paint26_linear_0_29)"/>
<path d="M501.594 363.847L526.626 343.718L559.061 383.948L534.029 404.077L501.594 363.847Z" fill="#505F98"/>
<path d="M501.594 363.847L526.626 343.718L559.061 383.948L534.029 404.077L501.594 363.847Z" fill="url(#paint27_linear_0_29)"/>
<path d="M527.714 343.389L552.782 323.169L585.364 363.456L560.297 383.677L527.714 343.389Z" fill="#505F98"/>
<path d="M552.794 322.99L577.862 302.77L610.444 343.057L585.377 363.277L552.794 322.99Z" fill="#505F98"/>
<path d="M576.402 304.051L601.434 283.923L633.869 324.153L608.837 344.281L576.402 304.051Z" fill="#505F98"/>
<path d="M606.42 347.218L585.321 364L553.383 323.782L574.482 307L606.42 347.218V347.218Z" fill="url(#paint28_linear_0_29)"/>
<path d="M573.445 306.648L598.477 286.519L630.912 326.749L605.88 346.878L573.445 306.648Z" fill="url(#paint29_linear_0_29)"/>
<path d="M522.362 428.15V551H501.347V428.15C501.347 423.61 504.166 419.57 508.366 418.089V405.825C508.366 403.712 510.041 402 512.109 402C514.176 402 515.852 403.712 515.852 405.825V418.297C519.771 419.935 522.34 423.823 522.362 428.15V428.15Z" fill="#505F98"/>
<path d="M522.362 428.15V551H501.347V428.15C501.347 423.61 504.166 419.57 508.366 418.089V405.825C508.366 403.712 510.041 402 512.109 402C514.176 402 515.852 403.712 515.852 405.825V418.297C519.771 419.935 522.34 423.823 522.362 428.15V428.15Z" fill="url(#paint30_linear_0_29)"/>
<rect x="488.338" y="506" width="50.0346" height="9" rx="2.245" fill="#505F98"/>
<path d="M513.044 588V588C504.471 588 497.344 575.185 497.344 566.634V510H528.366V566.634C528.366 575.185 521.596 588 513.044 588Z" fill="#505F98"/>
<rect x="488.338" y="506" width="50.0346" height="9" rx="2.245" fill="url(#paint31_linear_0_29)"/>
<path d="M513.044 588V588C504.471 588 497.344 575.366 497.344 566.937V515H528.366V566.937C528.366 575.366 521.596 588 513.044 588Z" fill="url(#paint32_linear_0_29)"/>
<path d="M713.136 648C712.463 644.436 712.037 639.39 713.331 639.043C716.059 638.275 713.136 648 713.136 648Z" fill="#28353D"/>
<path d="M856.395 843.507C855.909 856.102 846.147 902.388 845.83 915.004C845.83 919.202 846.95 925.647 845.597 929.698C842.808 938.284 832.919 937.108 831.63 932.049L831.144 929.53C826.559 905.012 833.933 877.198 831.144 845.186C829.475 825.643 821.699 787.963 816.606 787.711C813.923 787.711 752.665 916.851 747.34 924.807C744.72 928.817 737.345 928.187 733.774 931.42C730.203 934.652 763.526 833.515 777.493 780.07C780.751 769.039 782.875 757.709 783.833 746.252C784.213 739.64 782.079 737.415 788.185 735.463C792.412 734.119 798.265 734.497 802.787 734.182C807.71 733.804 853.5 733.72 853.5 736.953C853.057 754.502 857.578 814.412 856.395 843.507Z" fill="#606161"/>
<path d="M856.395 843.507C855.909 856.102 846.147 902.388 845.83 915.004C845.83 919.202 846.95 925.647 845.597 929.698C842.808 938.284 832.919 937.108 831.63 932.049L831.144 929.53C826.559 905.012 833.933 877.198 831.144 845.186C829.475 825.643 821.699 787.963 816.606 787.711C813.923 787.711 752.665 916.851 747.34 924.807C744.72 928.817 737.345 928.187 733.774 931.42C730.203 934.652 763.526 833.515 777.493 780.07C780.751 769.039 782.875 757.709 783.833 746.252C784.213 739.64 782.079 737.415 788.185 735.463C792.412 734.119 798.265 734.497 802.787 734.182C807.71 733.804 853.5 733.72 853.5 736.953C853.057 754.502 857.578 814.412 856.395 843.507Z" fill="url(#paint33_linear_0_29)"/>
<path d="M802.322 575.148C801.937 571.163 800.054 569 798.215 569C796.375 569 795.241 571.12 795.626 575.148C795.713 578.122 797.957 580.597 800.932 581C802.793 581 802.729 579.134 802.322 575.148Z" fill="#FFCD9C"/>
<path d="M834.716 575.159C834.966 571.166 836.803 569 838.702 569C840.601 569 841.832 571.124 841.54 575.159C841.514 578.173 839.268 580.687 836.323 581C834.445 581 834.424 579.152 834.716 575.159Z" fill="#FFCD9C"/>
<path d="M838.44 592.672C838.181 594.777 829.266 604 819.121 604C808.976 604 800.6 595.577 798.83 592.208C797.06 588.839 804.184 545.505 808.306 541.884C812.429 538.262 829.137 540.641 830.54 542.558C833.907 547.085 839.541 584.27 838.44 592.672Z" fill="#F4AD7D"/>
<path d="M834.246 559.977C832.867 560.639 827.452 546.842 826.316 544.525C825.18 542.208 825.362 539.829 826.742 539.167C828.121 538.505 830.149 539.871 831.285 542.167C832.421 544.463 835.605 559.336 834.246 559.977Z" fill="#FFCD9C"/>
<path d="M803.876 558.987C802.446 558.501 806.233 544.179 807.059 541.703C807.885 539.228 809.739 537.599 811.089 538.086C812.439 538.573 813.003 540.984 812.177 543.481C811.351 545.977 805.226 559.474 803.876 558.987Z" fill="#FFCD9C"/>
<path d="M809.553 591H831.317L834.578 611.622C822.722 618.005 815.81 617.301 806.559 610.214L809.553 591Z" fill="#F4AD7D"/>
<path d="M818.567 595.13C818.567 594.75 819.472 594.43 820.568 594.43C821.664 594.43 822.57 594.75 822.57 595.13C822.57 595.51 821.688 595.57 820.568 595.57C819.448 595.57 818.567 595.53 818.567 595.13Z" fill="#F4AD7D"/>
<path d="M839.6 585.808C840.424 580.894 841.768 545.708 838.473 541.051C835.177 536.394 815.449 533.381 812.457 534.108C805.758 535.731 806.929 540.517 806.929 540.517C804.938 540.547 802.989 541.084 801.271 542.076C798.973 543.615 794.138 565.79 797.997 582.56C799.732 590.102 806.561 596.66 818.354 596.981C832.879 597.365 838.603 591.896 839.6 585.808Z" fill="#606161"/>
<path d="M812.539 535.762C814.098 534.448 816.118 533.828 818.138 534.041C824.271 534.008 830.355 535.14 836.073 537.376C839.243 538.488 842.122 540.311 844.493 542.708C846.88 545.173 847.979 548.627 847.461 552.034C846.408 557.047 841.146 560.148 839.42 564.97C838.031 568.837 839.02 572.575 839.062 576.463C839.09 579.606 838.865 582.746 838.388 585.852C837.42 591.906 831.884 597.344 817.675 596.983C806.224 596.664 799.593 590.143 797.909 582.644C795.629 570.198 796.227 557.389 799.656 545.215C805.828 546.648 812.142 547.361 818.475 547.339C825.19 547.395 831.886 546.611 838.409 545.002C839.525 551.503 839.504 564.524 839.146 574.253" fill="#606161"/>
<path d="M777.41 607.954C773.976 608.241 770.668 609.384 767.785 611.28C762.847 615.171 762.472 622.43 762.556 628.748C762.387 637.501 762.993 646.252 764.368 654.897C765.848 662.826 768.535 670.441 770.743 678.202C774.224 690.831 776.052 703.862 776.181 716.966C776.181 724.162 776.056 732.07 780.535 737.697C785.431 743.806 794.098 744.998 801.89 745.438C812.953 746.086 824.057 746.17 835.12 745.709C842.537 745.375 850.433 744.643 856.308 740.082C860.996 736.442 871.975 613.288 863.454 610.171C854.933 607.054 845.766 606.259 836.724 605.506C816.453 603.791 797.369 602.431 777.41 607.954Z" fill="#505F98"/>
<path d="M841.23 863.291C840.143 877.255 837.551 928 837.551 928L830.946 927.77C826.41 903.39 833.705 875.732 830.946 843.899C829.295 824.465 821.603 786.996 816.565 786.746C818.07 774.221 826.536 776.1 826.536 776.1C832.692 785.294 838.002 795.026 842.4 805.178C847.438 818.37 842.337 849.263 841.23 863.291Z" fill="url(#paint34_linear_0_29)"/>
<path d="M716.873 929.024C715.841 929.786 715.058 930.83 714.621 932.025C714.386 933.009 714.481 934.04 714.892 934.965C716.058 937.326 718.269 939.019 720.876 939.55C723.453 940.04 726.091 940.131 728.696 939.818L737.036 939.262C739.158 939.212 741.264 938.873 743.292 938.255C745.322 937.627 746.998 936.198 747.921 934.308C748.412 932.916 748.604 931.438 748.484 929.969C748.484 923.164 746.065 917.634 738.517 919.299C730.61 920.765 723.183 924.102 716.873 929.024V929.024Z" fill="#505F98"/>
<path d="M855.411 932.063C856.359 932.759 857.077 933.709 857.478 934.797C857.692 935.682 857.608 936.611 857.239 937.446C856.176 939.584 854.146 941.114 851.755 941.579C849.398 942.035 846.981 942.121 844.596 941.834L837.024 941.325C835.098 941.284 833.187 940.985 831.345 940.435C829.488 939.864 827.958 938.566 827.123 936.853C826.675 935.595 826.498 934.26 826.601 932.932C826.601 926.785 828.777 921.72 835.718 923.288C842.915 924.619 849.672 927.63 855.411 932.063V932.063Z" fill="#505F98"/>
<path d="M864.599 610C864.599 610 897.314 629.163 907.14 653.389C916.965 677.614 874.961 736 874.961 736L865.972 726.814C865.972 726.814 887.897 682.759 884.507 671.74C881.117 660.721 867.838 650.452 867.838 650.452L864.599 610Z" fill="#505F98"/>
<path d="M771.534 647.859C771.534 647.859 726.046 668.24 707.561 658.238C689.076 648.237 708.106 598 708.106 598L720.486 602.202C720.486 602.202 710.142 627.815 721.975 631.618C733.809 635.421 769.268 610.438 769.268 610.438L771.534 647.859Z" fill="#505F98"/>
<path d="M857.175 734.976C855.866 735.826 854.806 736.968 854.09 738.297C853.66 739.425 853.505 740.629 853.637 741.819C853.557 744.709 854.872 747.479 857.218 749.367C858.866 750.25 860.713 750.76 862.611 750.857C863.774 751.048 864.964 751.048 866.128 750.857C867.314 750.646 868.305 749.888 868.759 748.844C868.914 748.183 868.98 747.507 868.954 746.831C869.105 743.51 871.607 740.793 873.678 738.076C874.178 737.551 874.501 736.9 874.606 736.204C874.594 735.434 874.305 734.69 873.786 734.091C872.384 732.199 868.91 728.717 866.128 729.018C863.345 729.32 859.332 733.326 857.175 734.976Z" fill="#F4AD7D"/>
<path d="M728.294 590.435C728.886 589.611 729.29 588.679 729.48 587.698C729.631 586.683 729.094 585.687 728.14 585.211C726.624 584.647 724.822 586.13 723.328 585.504C722.822 585.235 722.399 584.846 722.098 584.375C720.333 581.945 719.321 579.093 719.175 576.143C719.261 574.571 719.113 572.995 718.736 571.463C718.292 569.886 716.708 568.849 715.001 569.018C713.595 569.331 712.804 570.689 711.925 571.776C711.046 572.863 709.288 574.158 708.146 575.516C706.195 578.307 705.079 581.55 704.916 584.898C704.301 589.077 703.905 593.861 706.981 596.87C709.354 599.189 716.583 601.927 719.9 600.694C723.57 599.315 726.448 593.444 728.294 590.435Z" fill="#F4AD7D"/>
<defs>
<linearGradient id="paint0_linear_0_29" x1="528.11" y1="504.166" x2="592.864" y2="375.6" gradientUnits="userSpaceOnUse">
<stop stop-color="#010101" stop-opacity="0.01"/>
<stop offset="0.95" stop-color="#010101"/>
</linearGradient>
<linearGradient id="paint1_linear_0_29" x1="583.271" y1="500.365" x2="676.125" y2="318.775" gradientUnits="userSpaceOnUse">
<stop stop-color="#010101" stop-opacity="0.01"/>
<stop offset="0.95" stop-color="#010101"/>
</linearGradient>
<linearGradient id="paint2_linear_0_29" x1="703.253" y1="509.092" x2="840.607" y2="198.948" gradientUnits="userSpaceOnUse">
<stop stop-color="#010101" stop-opacity="0.01"/>
<stop offset="0.95" stop-color="#010101"/>
</linearGradient>
<linearGradient id="paint3_linear_0_29" x1="831.087" y1="525.583" x2="1036.02" y2="78.1785" gradientUnits="userSpaceOnUse">
<stop stop-color="#010101" stop-opacity="0.01"/>
<stop offset="0.36" stop-color="#010101" stop-opacity="0.36"/>
<stop offset="0.95" stop-color="#010101"/>
</linearGradient>
<linearGradient id="paint4_linear_0_29" x1="682.434" y1="420.564" x2="799.594" y2="178.969" gradientUnits="userSpaceOnUse">
<stop stop-color="white" stop-opacity="0.01"/>
<stop offset="0.07" stop-color="white" stop-opacity="0.22"/>
<stop offset="0.16" stop-color="white" stop-opacity="0.45"/>
<stop offset="0.25" stop-color="white" stop-opacity="0.65"/>
<stop offset="0.33" stop-color="white" stop-opacity="0.8"/>
<stop offset="0.4" stop-color="white" stop-opacity="0.91"/>
<stop offset="0.46" stop-color="white" stop-opacity="0.98"/>
<stop offset="0.51" stop-color="white"/>
</linearGradient>
<linearGradient id="paint5_linear_0_29" x1="604.358" y1="367.444" x2="668.555" y2="231.555" gradientUnits="userSpaceOnUse">
<stop stop-color="white" stop-opacity="0.01"/>
<stop offset="0.07" stop-color="white" stop-opacity="0.22"/>
<stop offset="0.16" stop-color="white" stop-opacity="0.45"/>
<stop offset="0.25" stop-color="white" stop-opacity="0.65"/>
<stop offset="0.33" stop-color="white" stop-opacity="0.8"/>
<stop offset="0.4" stop-color="white" stop-opacity="0.91"/>
<stop offset="0.46" stop-color="white" stop-opacity="0.98"/>
<stop offset="0.51" stop-color="white"/>
</linearGradient>
<linearGradient id="paint6_linear_0_29" x1="909.68" y1="830.322" x2="920.101" y2="703.584" gradientUnits="userSpaceOnUse">
<stop stop-color="#010101" stop-opacity="0.01"/>
<stop offset="0.95" stop-color="#010101"/>
</linearGradient>
<linearGradient id="paint7_linear_0_29" x1="507.967" y1="367.517" x2="505.252" y2="817.071" gradientUnits="userSpaceOnUse">
<stop stop-color="white" stop-opacity="0.01"/>
<stop offset="0.07" stop-color="white" stop-opacity="0.22"/>
<stop offset="0.16" stop-color="white" stop-opacity="0.45"/>
<stop offset="0.25" stop-color="white" stop-opacity="0.65"/>
<stop offset="0.33" stop-color="white" stop-opacity="0.8"/>
<stop offset="0.4" stop-color="white" stop-opacity="0.91"/>
<stop offset="0.46" stop-color="white" stop-opacity="0.98"/>
<stop offset="0.51" stop-color="white"/>
</linearGradient>
<linearGradient id="paint8_linear_0_29" x1="254.313" y1="805.073" x2="254.413" y2="947.306" gradientUnits="userSpaceOnUse">
<stop stop-color="#010101" stop-opacity="0.01"/>
<stop offset="0.95" stop-color="#010101"/>
</linearGradient>
<linearGradient id="paint9_linear_0_29" x1="1406.73" y1="550.966" x2="1440.91" y2="143.855" gradientUnits="userSpaceOnUse">
<stop stop-color="white" stop-opacity="0.01"/>
<stop offset="0.07" stop-color="white" stop-opacity="0.22"/>
<stop offset="0.16" stop-color="white" stop-opacity="0.45"/>
<stop offset="0.25" stop-color="white" stop-opacity="0.65"/>
<stop offset="0.33" stop-color="white" stop-opacity="0.8"/>
<stop offset="0.4" stop-color="white" stop-opacity="0.91"/>
<stop offset="0.46" stop-color="white" stop-opacity="0.98"/>
<stop offset="0.51" stop-color="white"/>
</linearGradient>
<linearGradient id="paint10_linear_0_29" x1="579.846" y1="440.87" x2="717.853" y2="809.142" gradientUnits="userSpaceOnUse">
<stop stop-color="white" stop-opacity="0.01"/>
<stop offset="0.07" stop-color="white" stop-opacity="0.22"/>
<stop offset="0.16" stop-color="white" stop-opacity="0.45"/>
<stop offset="0.25" stop-color="white" stop-opacity="0.65"/>
<stop offset="0.33" stop-color="white" stop-opacity="0.8"/>
<stop offset="0.4" stop-color="white" stop-opacity="0.91"/>
<stop offset="0.46" stop-color="white" stop-opacity="0.98"/>
<stop offset="0.51" stop-color="white"/>
</linearGradient>
<linearGradient id="paint11_linear_0_29" x1="683.377" y1="463.99" x2="680.051" y2="746.698" gradientUnits="userSpaceOnUse">
<stop stop-color="white" stop-opacity="0.01"/>
<stop offset="0.07" stop-color="white" stop-opacity="0.22"/>
<stop offset="0.16" stop-color="white" stop-opacity="0.45"/>
<stop offset="0.25" stop-color="white" stop-opacity="0.65"/>
<stop offset="0.33" stop-color="white" stop-opacity="0.8"/>
<stop offset="0.4" stop-color="white" stop-opacity="0.91"/>
<stop offset="0.46" stop-color="white" stop-opacity="0.98"/>
<stop offset="0.51" stop-color="white"/>
</linearGradient>
<linearGradient id="paint12_linear_0_29" x1="999.211" y1="655.704" x2="1018.4" y2="77.785" gradientUnits="userSpaceOnUse">
<stop stop-color="#010101" stop-opacity="0.01"/>
<stop offset="0.95" stop-color="#010101"/>
</linearGradient>
<linearGradient id="paint13_linear_0_29" x1="998.359" y1="656.045" x2="1017.55" y2="78.1255" gradientUnits="userSpaceOnUse">
<stop stop-color="#010101" stop-opacity="0.01"/>
<stop offset="0.95" stop-color="#010101"/>
</linearGradient>
<linearGradient id="paint14_linear_0_29" x1="904.18" y1="653.354" x2="923.396" y2="75.4352" gradientUnits="userSpaceOnUse">
<stop stop-color="#010101" stop-opacity="0.01"/>
<stop offset="0.95" stop-color="#010101"/>
</linearGradient>
<linearGradient id="paint15_linear_0_29" x1="903.328" y1="653.694" x2="922.544" y2="75.7757" gradientUnits="userSpaceOnUse">
<stop stop-color="#010101" stop-opacity="0.01"/>
<stop offset="0.95" stop-color="#010101"/>
</linearGradient>
<linearGradient id="paint16_linear_0_29" x1="997.421" y1="657.545" x2="1016.64" y2="79.6267" gradientUnits="userSpaceOnUse">
<stop stop-color="#010101" stop-opacity="0.01"/>
<stop offset="0.95" stop-color="#010101"/>
</linearGradient>
<linearGradient id="paint17_linear_0_29" x1="903.39" y1="655.236" x2="922.578" y2="77.3169" gradientUnits="userSpaceOnUse">
<stop stop-color="#010101" stop-opacity="0.01"/>
<stop offset="0.95" stop-color="#010101"/>
</linearGradient>
<linearGradient id="paint18_linear_0_29" x1="951.38" y1="656.396" x2="970.597" y2="78.4991" gradientUnits="userSpaceOnUse">
<stop stop-color="#010101" stop-opacity="0.01"/>
<stop offset="0.95" stop-color="#010101"/>
</linearGradient>
<linearGradient id="paint19_linear_0_29" x1="953.196" y1="653.843" x2="972.413" y2="75.9246" gradientUnits="userSpaceOnUse">
<stop stop-color="#010101" stop-opacity="0.01"/>
<stop offset="0.95" stop-color="#010101"/>
</linearGradient>
<linearGradient id="paint20_linear_0_29" x1="608.119" y1="668.399" x2="840.351" y2="885.094" gradientUnits="userSpaceOnUse">
<stop stop-color="white" stop-opacity="0.01"/>
<stop offset="0.07" stop-color="white" stop-opacity="0.22"/>
<stop offset="0.16" stop-color="white" stop-opacity="0.45"/>
<stop offset="0.25" stop-color="white" stop-opacity="0.65"/>
<stop offset="0.33" stop-color="white" stop-opacity="0.8"/>
<stop offset="0.4" stop-color="white" stop-opacity="0.91"/>
<stop offset="0.46" stop-color="white" stop-opacity="0.98"/>
<stop offset="0.51" stop-color="white"/>
</linearGradient>
<linearGradient id="paint21_linear_0_29" x1="956.986" y1="448.864" x2="955.2" y2="584.026" gradientUnits="userSpaceOnUse">
<stop stop-color="white" stop-opacity="0.01"/>
<stop offset="0.07" stop-color="white" stop-opacity="0.22"/>
<stop offset="0.16" stop-color="white" stop-opacity="0.45"/>
<stop offset="0.25" stop-color="white" stop-opacity="0.65"/>
<stop offset="0.33" stop-color="white" stop-opacity="0.8"/>
<stop offset="0.4" stop-color="white" stop-opacity="0.91"/>
<stop offset="0.46" stop-color="white" stop-opacity="0.98"/>
<stop offset="0.51" stop-color="white"/>
</linearGradient>
<linearGradient id="paint22_linear_0_29" x1="956.986" y1="558.864" x2="955.2" y2="694.026" gradientUnits="userSpaceOnUse">
<stop stop-color="white" stop-opacity="0.01"/>
<stop offset="0.07" stop-color="white" stop-opacity="0.22"/>
<stop offset="0.16" stop-color="white" stop-opacity="0.45"/>
<stop offset="0.25" stop-color="white" stop-opacity="0.65"/>
<stop offset="0.33" stop-color="white" stop-opacity="0.8"/>
<stop offset="0.4" stop-color="white" stop-opacity="0.91"/>
<stop offset="0.46" stop-color="white" stop-opacity="0.98"/>
<stop offset="0.51" stop-color="white"/>
</linearGradient>
<linearGradient id="paint23_linear_0_29" x1="593.145" y1="484.281" x2="593.128" y2="502.481" gradientUnits="userSpaceOnUse">
<stop stop-color="white" stop-opacity="0.01"/>
<stop offset="0.07" stop-color="white" stop-opacity="0.22"/>
<stop offset="0.16" stop-color="white" stop-opacity="0.45"/>
<stop offset="0.25" stop-color="white" stop-opacity="0.65"/>
<stop offset="0.33" stop-color="white" stop-opacity="0.8"/>
<stop offset="0.4" stop-color="white" stop-opacity="0.91"/>
<stop offset="0.46" stop-color="white" stop-opacity="0.98"/>
<stop offset="0.51" stop-color="white"/>
</linearGradient>
<linearGradient id="paint24_linear_0_29" x1="512.445" y1="537.052" x2="625.876" y2="447.635" gradientUnits="userSpaceOnUse">
<stop stop-color="#010101" stop-opacity="0.01"/>
<stop offset="0.95" stop-color="#010101"/>
</linearGradient>
<linearGradient id="paint25_linear_0_29" x1="562.284" y1="556.988" x2="723.56" y2="431.867" gradientUnits="userSpaceOnUse">
<stop stop-color="#010101" stop-opacity="0.01"/>
<stop offset="0.95" stop-color="#010101"/>
</linearGradient>
<linearGradient id="paint26_linear_0_29" x1="667.228" y1="615.751" x2="923.392" y2="393.028" gradientUnits="userSpaceOnUse">
<stop stop-color="#010101" stop-opacity="0.01"/>
<stop offset="0.95" stop-color="#010101"/>
</linearGradient>
<linearGradient id="paint27_linear_0_29" x1="775.987" y1="684.865" x2="1151.67" y2="366.45" gradientUnits="userSpaceOnUse">
<stop stop-color="#010101" stop-opacity="0.01"/>
<stop offset="0.36" stop-color="#010101" stop-opacity="0.36"/>
<stop offset="0.95" stop-color="#010101"/>
</linearGradient>
<linearGradient id="paint28_linear_0_29" x1="624.246" y1="447.751" x2="807.185" y2="316.322" gradientUnits="userSpaceOnUse">
<stop stop-color="white" stop-opacity="0.01"/>
<stop offset="0.07" stop-color="white" stop-opacity="0.22"/>
<stop offset="0.16" stop-color="white" stop-opacity="0.45"/>
<stop offset="0.25" stop-color="white" stop-opacity="0.65"/>
<stop offset="0.33" stop-color="white" stop-opacity="0.8"/>
<stop offset="0.4" stop-color="white" stop-opacity="0.91"/>
<stop offset="0.46" stop-color="white" stop-opacity="0.98"/>
<stop offset="0.51" stop-color="white"/>
</linearGradient>
<linearGradient id="paint29_linear_0_29" x1="637.859" y1="445.517" x2="753.717" y2="349.658" gradientUnits="userSpaceOnUse">
<stop stop-color="white" stop-opacity="0.01"/>
<stop offset="0.07" stop-color="white" stop-opacity="0.22"/>
<stop offset="0.16" stop-color="white" stop-opacity="0.45"/>
<stop offset="0.25" stop-color="white" stop-opacity="0.65"/>
<stop offset="0.33" stop-color="white" stop-opacity="0.8"/>
<stop offset="0.4" stop-color="white" stop-opacity="0.91"/>
<stop offset="0.46" stop-color="white" stop-opacity="0.98"/>
<stop offset="0.51" stop-color="white"/>
</linearGradient>
<linearGradient id="paint30_linear_0_29" x1="503.446" y1="611.745" x2="541.631" y2="611.767" gradientUnits="userSpaceOnUse">
<stop stop-color="white" stop-opacity="0.01"/>
<stop offset="0.07" stop-color="white" stop-opacity="0.22"/>
<stop offset="0.16" stop-color="white" stop-opacity="0.45"/>
<stop offset="0.25" stop-color="white" stop-opacity="0.65"/>
<stop offset="0.33" stop-color="white" stop-opacity="0.8"/>
<stop offset="0.4" stop-color="white" stop-opacity="0.91"/>
<stop offset="0.46" stop-color="white" stop-opacity="0.98"/>
<stop offset="0.51" stop-color="white"/>
</linearGradient>
<linearGradient id="paint31_linear_0_29" x1="430.154" y1="514.2" x2="441.805" y2="552.932" gradientUnits="userSpaceOnUse">
<stop stop-color="#010101" stop-opacity="0.01"/>
<stop offset="0.95" stop-color="#010101"/>
</linearGradient>
<linearGradient id="paint32_linear_0_29" x1="454.952" y1="662.933" x2="555.854" y2="664.976" gradientUnits="userSpaceOnUse">
<stop stop-color="#010101" stop-opacity="0.01"/>
<stop offset="0.95" stop-color="#010101"/>
</linearGradient>
<linearGradient id="paint33_linear_0_29" x1="857.723" y1="820.512" x2="761.63" y2="655.732" gradientUnits="userSpaceOnUse">
<stop stop-color="#010101" stop-opacity="0.01"/>
<stop offset="0.95" stop-color="#010101"/>
</linearGradient>
<linearGradient id="paint34_linear_0_29" x1="858.746" y1="358.892" x2="685.86" y2="363.761" gradientUnits="userSpaceOnUse">
<stop stop-color="#010101" stop-opacity="0.01"/>
<stop offset="0.95" stop-color="#010101"/>
</linearGradient>
</defs>
</svg>
